/home/xinjie/Newton_Connection/Newton/phystwin_bridge/tools/core/newton_import_ir.py:1209: UserWarning: tabletop_table_box: PhysTwin ground collide_elas is present in IR, but native Newton SemiImplicit has no direct 1-to-1 restitution field for particle-vs-shape contacts. Ground bounce will therefore use native Newton ground ke/kd/kf defaults unless --ground-restitution-mode=approximate-native is selected.
  warnings.warn(message)
ffmpeg version 6.1.1-3ubuntu5+esm7 Copyright (c) 2000-2023 the FFmpeg developers
  built with gcc 13 (Ubuntu 13.3.0-6ubuntu2~24.04)
  configuration: --prefix=/usr --extra-version=3ubuntu5+esm7 --toolchain=hardened --libdir=/usr/lib/x86_64-linux-gnu --incdir=/usr/include/x86_64-linux-gnu --arch=amd64 --enable-gpl --disable-stripping --disable-omx --enable-gnutls --enable-libaom --enable-libass --enable-libbs2b --enable-libcaca --enable-libcdio --enable-libcodec2 --enable-libdav1d --enable-libflite --enable-libfontconfig --enable-libfreetype --enable-libfribidi --enable-libglslang --enable-libgme --enable-libgsm --enable-libharfbuzz --enable-libmp3lame --enable-libmysofa --enable-libopenjpeg --enable-libopenmpt --enable-libopus --enable-librubberband --enable-libshine --enable-libsnappy --enable-libsoxr --enable-libspeex --enable-libtheora --enable-libtwolame --enable-libvidstab --enable-libvorbis --enable-libvpx --enable-libwebp --enable-libx265 --enable-libxml2 --enable-libxvid --enable-libzimg --enable-openal --enable-opencl --enable-opengl --disable-sndio --enable-libvpl --disable-libmfx --enable-libdc1394 --enable-libdrm --enable-libiec61883 --enable-chromaprint --enable-frei0r --enable-ladspa --enable-libbluray --enable-libjack --enable-libpulse --enable-librabbitmq --enable-librist --enable-libsrt --enable-libssh --enable-libsvtav1 --enable-libx264 --enable-libzmq --enable-libzvbi --enable-lv2 --enable-sdl2 --enable-libplacebo --enable-librav1e --enable-pocketsphinx --enable-librsvg --enable-libjxl --enable-shared
  libavutil      58. 29.100 / 58. 29.100
  libavcodec     60. 31.102 / 60. 31.102
  libavformat    60. 16.100 / 60. 16.100
  libavdevice    60.  3.100 / 60.  3.100
  libavfilter     9. 12.100 /  9. 12.100
  libswscale      7.  5.100 /  7.  5.100
  libswresample   4. 12.100 /  4. 12.100
  libpostproc    57.  3.100 / 57.  3.100
Input #0, rawvideo, from 'fd:':
  Duration: N/A, start: 0.000000, bitrate: 663552 kb/s
  Stream #0:0: Video: rawvideo (RGB[24] / 0x18424752), rgb24, 1280x720, 663552 kb/s, 30 tbr, 30 tbn
Stream mapping:
  Stream #0:0 -> #0:0 (rawvideo (native) -> h264 (libx264))
[libx264 @ 0x6466c825d480] using cpu capabilities: MMX2 SSE2Fast SSSE3 SSE4.2 AVX FMA3 BMI2 AVX2
[libx264 @ 0x6466c825d480] profile High, level 3.1, 4:2:0, 8-bit
[libx264 @ 0x6466c825d480] 264 - core 164 r3108 31e19f9 - H.264/MPEG-4 AVC codec - Copyleft 2003-2023 - http://www.videolan.org/x264.html - options: cabac=1 ref=3 deblock=1:0:0 analyse=0x3:0x113 me=hex subme=7 psy=1 psy_rd=1.00:0.00 mixed_ref=1 me_range=16 chroma_me=1 trellis=1 8x8dct=1 cqm=0 deadzone=21,11 fast_pskip=1 chroma_qp_offset=-2 threads=22 lookahead_threads=3 sliced_threads=0 nr=0 decimate=1 interlaced=0 bluray_compat=0 constrained_intra=0 bframes=3 b_pyramid=2 b_adapt=1 b_bias=0 direct=1 weightb=1 open_gop=0 weightp=2 keyint=250 keyint_min=25 scenecut=40 intra_refresh=0 rc_lookahead=40 rc=crf mbtree=1 crf=18.0 qcomp=0.60 qpmin=0 qpmax=69 qpstep=4 ip_ratio=1.40 aq=1:1.00
Output #0, mp4, to '/home/xinjie/Newton_Connection/Newton/phystwin_bridge/results/robot_rope_franka/candidates/20260403_002700_physradius0p5_c17/presentation/work/robot_rope_tabletop_hero.mp4':
  Metadata:
    encoder         : Lavf60.16.100
  Stream #0:0: Video: h264 (avc1 / 0x31637661), yuv420p(tv, progressive), 1280x720, q=2-31, 30 fps, 15360 tbn
    Metadata:
      encoder         : Lavc60.31.102 libx264
    Side data:
      cpb: bitrate max/min/avg: 0/0/0 buffer size: 0 vbv_delay: N/A
frame=    0 fps=0.0 q=0.0 size=       0kB time=N/A bitrate=N/A speed=N/A    frame=   41 fps=0.0 q=24.0 size=       0kB time=00:00:01.30 bitrate=   0.3kbits/s speed=2.59x    [out#0/mp4 @ 0x6466c825bc80] video:689kB audio:0kB subtitle:0kB other streams:0kB global headers:0kB muxing overhead: 0.434815%
frame=  186 fps=0.0 q=-1.0 Lsize=     692kB time=00:00:06.10 bitrate= 929.4kbits/s speed=6.74x    
[libx264 @ 0x6466c825d480] frame I:1     Avg QP: 8.96  size: 86497
[libx264 @ 0x6466c825d480] frame P:48    Avg QP:16.46  size:  7233
[libx264 @ 0x6466c825d480] frame B:137   Avg QP:22.77  size:  1980
[libx264 @ 0x6466c825d480] consecutive B-frames:  0.5%  2.2%  4.8% 92.5%
[libx264 @ 0x6466c825d480] mb I  I16..4: 46.8%  9.6% 43.6%
[libx264 @ 0x6466c825d480] mb P  I16..4:  0.2%  0.4%  0.2%  P16..4:  4.2%  3.0%  2.4%  0.0%  0.0%    skip:89.6%
[libx264 @ 0x6466c825d480] mb B  I16..4:  0.0%  0.0%  0.0%  B16..8:  3.6%  1.5%  0.6%  direct: 0.6%  skip:93.6%  L0:35.7% L1:39.6% BI:24.7%
[libx264 @ 0x6466c825d480] 8x8 transform intra:22.6% inter:18.9%
[libx264 @ 0x6466c825d480] coded y,uvDC,uvAC intra: 35.3% 43.4% 37.5% inter: 2.2% 0.6% 0.3%
[libx264 @ 0x6466c825d480] i16 v,h,dc,p: 80% 11%  6%  3%
[libx264 @ 0x6466c825d480] i8 v,h,dc,ddl,ddr,vr,hd,vl,hu: 11% 17% 42%  2% 10%  8%  4%  2%  4%
[libx264 @ 0x6466c825d480] i4 v,h,dc,ddl,ddr,vr,hd,vl,hu: 21% 30% 18%  2%  7%  5%  8%  2%  8%
[libx264 @ 0x6466c825d480] i8c dc,h,v,p: 67% 18% 12%  3%
[libx264 @ 0x6466c825d480] Weighted P-Frames: Y:0.0% UV:0.0%
[libx264 @ 0x6466c825d480] ref P L0: 65.6% 12.6% 16.3%  5.5%
[libx264 @ 0x6466c825d480] ref B L0: 85.1% 12.6%  2.3%
[libx264 @ 0x6466c825d480] ref B L1: 93.7%  6.3%
[libx264 @ 0x6466c825d480] kb/s:909.55
/home/xinjie/Newton_Connection/Newton/phystwin_bridge/tools/core/newton_import_ir.py:1209: UserWarning: tabletop_table_box: PhysTwin ground collide_elas is present in IR, but native Newton SemiImplicit has no direct 1-to-1 restitution field for particle-vs-shape contacts. Ground bounce will therefore use native Newton ground ke/kd/kf defaults unless --ground-restitution-mode=approximate-native is selected.
  warnings.warn(message)
ffmpeg version 6.1.1-3ubuntu5+esm7 Copyright (c) 2000-2023 the FFmpeg developers
  built with gcc 13 (Ubuntu 13.3.0-6ubuntu2~24.04)
  configuration: --prefix=/usr --extra-version=3ubuntu5+esm7 --toolchain=hardened --libdir=/usr/lib/x86_64-linux-gnu --incdir=/usr/include/x86_64-linux-gnu --arch=amd64 --enable-gpl --disable-stripping --disable-omx --enable-gnutls --enable-libaom --enable-libass --enable-libbs2b --enable-libcaca --enable-libcdio --enable-libcodec2 --enable-libdav1d --enable-libflite --enable-libfontconfig --enable-libfreetype --enable-libfribidi --enable-libglslang --enable-libgme --enable-libgsm --enable-libharfbuzz --enable-libmp3lame --enable-libmysofa --enable-libopenjpeg --enable-libopenmpt --enable-libopus --enable-librubberband --enable-libshine --enable-libsnappy --enable-libsoxr --enable-libspeex --enable-libtheora --enable-libtwolame --enable-libvidstab --enable-libvorbis --enable-libvpx --enable-libwebp --enable-libx265 --enable-libxml2 --enable-libxvid --enable-libzimg --enable-openal --enable-opencl --enable-opengl --disable-sndio --enable-libvpl --disable-libmfx --enable-libdc1394 --enable-libdrm --enable-libiec61883 --enable-chromaprint --enable-frei0r --enable-ladspa --enable-libbluray --enable-libjack --enable-libpulse --enable-librabbitmq --enable-librist --enable-libsrt --enable-libssh --enable-libsvtav1 --enable-libx264 --enable-libzmq --enable-libzvbi --enable-lv2 --enable-sdl2 --enable-libplacebo --enable-librav1e --enable-pocketsphinx --enable-librsvg --enable-libjxl --enable-shared
  libavutil      58. 29.100 / 58. 29.100
  libavcodec     60. 31.102 / 60. 31.102
  libavformat    60. 16.100 / 60. 16.100
  libavdevice    60.  3.100 / 60.  3.100
  libavfilter     9. 12.100 /  9. 12.100
  libswscale      7.  5.100 /  7.  5.100
  libswresample   4. 12.100 /  4. 12.100
  libpostproc    57.  3.100 / 57.  3.100
Input #0, rawvideo, from 'fd:':
  Duration: N/A, start: 0.000000, bitrate: 663552 kb/s
  Stream #0:0: Video: rawvideo (RGB[24] / 0x18424752), rgb24, 1280x720, 663552 kb/s, 30 tbr, 30 tbn
Stream mapping:
  Stream #0:0 -> #0:0 (rawvideo (native) -> h264 (libx264))
[libx264 @ 0x5b820e10d480] using cpu capabilities: MMX2 SSE2Fast SSSE3 SSE4.2 AVX FMA3 BMI2 AVX2
[libx264 @ 0x5b820e10d480] profile High, level 3.1, 4:2:0, 8-bit
[libx264 @ 0x5b820e10d480] 264 - core 164 r3108 31e19f9 - H.264/MPEG-4 AVC codec - Copyleft 2003-2023 - http://www.videolan.org/x264.html - options: cabac=1 ref=3 deblock=1:0:0 analyse=0x3:0x113 me=hex subme=7 psy=1 psy_rd=1.00:0.00 mixed_ref=1 me_range=16 chroma_me=1 trellis=1 8x8dct=1 cqm=0 deadzone=21,11 fast_pskip=1 chroma_qp_offset=-2 threads=22 lookahead_threads=3 sliced_threads=0 nr=0 decimate=1 interlaced=0 bluray_compat=0 constrained_intra=0 bframes=3 b_pyramid=2 b_adapt=1 b_bias=0 direct=1 weightb=1 open_gop=0 weightp=2 keyint=250 keyint_min=25 scenecut=40 intra_refresh=0 rc_lookahead=40 rc=crf mbtree=1 crf=18.0 qcomp=0.60 qpmin=0 qpmax=69 qpstep=4 ip_ratio=1.40 aq=1:1.00
Output #0, mp4, to '/home/xinjie/Newton_Connection/Newton/phystwin_bridge/results/robot_rope_franka/candidates/20260403_002700_physradius0p5_c17/debug/work/robot_rope_tabletop_hero_debug.mp4':
  Metadata:
    encoder         : Lavf60.16.100
  Stream #0:0: Video: h264 (avc1 / 0x31637661), yuv420p(tv, progressive), 1280x720, q=2-31, 30 fps, 15360 tbn
    Metadata:
      encoder         : Lavc60.31.102 libx264
    Side data:
      cpb: bitrate max/min/avg: 0/0/0 buffer size: 0 vbv_delay: N/A
frame=    0 fps=0.0 q=0.0 size=       0kB time=N/A bitrate=N/A speed=N/A    frame=    0 fps=0.0 q=0.0 size=       0kB time=N/A bitrate=N/A speed=N/A    frame=    0 fps=0.0 q=0.0 size=       0kB time=N/A bitrate=N/A speed=N/A    frame=    0 fps=0.0 q=0.0 size=       0kB time=N/A bitrate=N/A speed=N/A    frame=    0 fps=0.0 q=0.0 size=       0kB time=N/A bitrate=N/A speed=N/A    frame=    0 fps=0.0 q=0.0 size=       0kB time=N/A bitrate=N/A speed=N/A    frame=    0 fps=0.0 q=0.0 size=       0kB time=N/A bitrate=N/A speed=N/A    frame=    0 fps=0.0 q=0.0 size=       0kB time=N/A bitrate=N/A speed=N/A    frame=    0 fps=0.0 q=0.0 size=       0kB time=N/A bitrate=N/A speed=N/A    frame=    0 fps=0.0 q=0.0 size=       0kB time=N/A bitrate=N/A speed=N/A    frame=    0 fps=0.0 q=24.0 size=       0kB time=-00:00:00.06 bitrate=  -0.0kbits/s speed=N/A    frame=    6 fps=1.0 q=24.0 size=       0kB time=00:00:00.13 bitrate=   2.9kbits/s speed=0.0223x    frame=   13 fps=2.0 q=24.0 size=       0kB time=00:00:00.36 bitrate=   1.0kbits/s speed=0.0558x    frame=   20 fps=2.8 q=24.0 size=       0kB time=00:00:00.60 bitrate=   0.6kbits/s speed=0.084x    frame=   27 fps=3.5 q=24.0 size=       0kB time=00:00:00.83 bitrate=   0.5kbits/s speed=0.108x    frame=   34 fps=4.1 q=24.0 size=       0kB time=00:00:01.06 bitrate=   0.4kbits/s speed=0.128x    frame=   40 fps=4.5 q=24.0 size=       0kB time=00:00:01.26 bitrate=   0.3kbits/s speed=0.144x    frame=   46 fps=4.9 q=24.0 size=       0kB time=00:00:01.46 bitrate=   0.3kbits/s speed=0.157x    frame=   53 fps=5.4 q=24.0 size=       0kB time=00:00:01.70 bitrate=   0.2kbits/s speed=0.172x    frame=   60 fps=5.7 q=24.0 size=       0kB time=00:00:01.93 bitrate=   0.2kbits/s speed=0.185x    frame=   67 fps=6.1 q=24.0 size=       0kB time=00:00:02.16 bitrate=   0.2kbits/s speed=0.197x    frame=   74 fps=6.4 q=24.0 size=       0kB time=00:00:02.40 bitrate=   0.2kbits/s speed=0.207x    frame=   81 fps=6.7 q=24.0 size=       0kB time=00:00:02.63 bitrate=   0.1kbits/s speed=0.217x    frame=   88 fps=6.9 q=24.0 size=     256kB time=00:00:02.86 bitrate= 731.7kbits/s speed=0.225x    frame=   95 fps=7.2 q=24.0 size=     256kB time=00:00:03.10 bitrate= 676.6kbits/s speed=0.233x    frame=  101 fps=7.3 q=24.0 size=     256kB time=00:00:03.30 bitrate= 635.6kbits/s speed=0.239x    frame=  108 fps=7.5 q=24.0 size=     256kB time=00:00:03.53 bitrate= 593.6kbits/s speed=0.246x    frame=  115 fps=7.7 q=24.0 size=     256kB time=00:00:03.76 bitrate= 556.9kbits/s speed=0.253x    [out#0/mp4 @ 0x5b820e10bc80] video:658kB audio:0kB subtitle:0kB other streams:0kB global headers:0kB muxing overhead: 0.457827%
frame=  186 fps= 12 q=-1.0 Lsize=     661kB time=00:00:06.10 bitrate= 887.5kbits/s speed=0.397x    
[libx264 @ 0x5b820e10d480] frame I:1     Avg QP: 9.84  size: 50200
[libx264 @ 0x5b820e10d480] frame P:47    Avg QP:17.31  size:  7920
[libx264 @ 0x5b820e10d480] frame B:138   Avg QP:24.92  size:  1815
[libx264 @ 0x5b820e10d480] consecutive B-frames:  0.5%  1.1%  1.6% 96.8%
[libx264 @ 0x5b820e10d480] mb I  I16..4: 57.3% 20.3% 22.4%
[libx264 @ 0x5b820e10d480] mb P  I16..4:  0.2%  0.2%  0.4%  P16..4:  3.7%  2.7%  2.6%  0.0%  0.0%    skip:90.1%
[libx264 @ 0x5b820e10d480] mb B  I16..4:  0.0%  0.0%  0.0%  B16..8:  3.0%  1.3%  0.6%  direct: 0.6%  skip:94.5%  L0:33.7% L1:41.9% BI:24.4%
[libx264 @ 0x5b820e10d480] 8x8 transform intra:24.1% inter:20.2%
[libx264 @ 0x5b820e10d480] coded y,uvDC,uvAC intra: 26.8% 23.5% 14.5% inter: 2.2% 0.6% 0.3%
[libx264 @ 0x5b820e10d480] i16 v,h,dc,p: 83% 12%  3%  2%
[libx264 @ 0x5b820e10d480] i8 v,h,dc,ddl,ddr,vr,hd,vl,hu: 36% 14% 42%  1%  2%  1%  2%  1%  2%
[libx264 @ 0x5b820e10d480] i4 v,h,dc,ddl,ddr,vr,hd,vl,hu: 26% 27% 15%  3%  6%  7%  6%  4%  6%
[libx264 @ 0x5b820e10d480] i8c dc,h,v,p: 71% 19%  8%  1%
[libx264 @ 0x5b820e10d480] Weighted P-Frames: Y:0.0% UV:0.0%
[libx264 @ 0x5b820e10d480] ref P L0: 66.9% 15.6% 13.3%  4.2%
[libx264 @ 0x5b820e10d480] ref B L0: 88.0% 10.0%  2.0%
[libx264 @ 0x5b820e10d480] ref B L1: 95.6%  4.4%
[libx264 @ 0x5b820e10d480] kb/s:868.29
/home/xinjie/Newton_Connection/Newton/phystwin_bridge/tools/core/newton_import_ir.py:1209: UserWarning: tabletop_table_box: PhysTwin ground collide_elas is present in IR, but native Newton SemiImplicit has no direct 1-to-1 restitution field for particle-vs-shape contacts. Ground bounce will therefore use native Newton ground ke/kd/kf defaults unless --ground-restitution-mode=approximate-native is selected.
  warnings.warn(message)
ffmpeg version 6.1.1-3ubuntu5+esm7 Copyright (c) 2000-2023 the FFmpeg developers
  built with gcc 13 (Ubuntu 13.3.0-6ubuntu2~24.04)
  configuration: --prefix=/usr --extra-version=3ubuntu5+esm7 --toolchain=hardened --libdir=/usr/lib/x86_64-linux-gnu --incdir=/usr/include/x86_64-linux-gnu --arch=amd64 --enable-gpl --disable-stripping --disable-omx --enable-gnutls --enable-libaom --enable-libass --enable-libbs2b --enable-libcaca --enable-libcdio --enable-libcodec2 --enable-libdav1d --enable-libflite --enable-libfontconfig --enable-libfreetype --enable-libfribidi --enable-libglslang --enable-libgme --enable-libgsm --enable-libharfbuzz --enable-libmp3lame --enable-libmysofa --enable-libopenjpeg --enable-libopenmpt --enable-libopus --enable-librubberband --enable-libshine --enable-libsnappy --enable-libsoxr --enable-libspeex --enable-libtheora --enable-libtwolame --enable-libvidstab --enable-libvorbis --enable-libvpx --enable-libwebp --enable-libx265 --enable-libxml2 --enable-libxvid --enable-libzimg --enable-openal --enable-opencl --enable-opengl --disable-sndio --enable-libvpl --disable-libmfx --enable-libdc1394 --enable-libdrm --enable-libiec61883 --enable-chromaprint --enable-frei0r --enable-ladspa --enable-libbluray --enable-libjack --enable-libpulse --enable-librabbitmq --enable-librist --enable-libsrt --enable-libssh --enable-libsvtav1 --enable-libx264 --enable-libzmq --enable-libzvbi --enable-lv2 --enable-sdl2 --enable-libplacebo --enable-librav1e --enable-pocketsphinx --enable-librsvg --enable-libjxl --enable-shared
  libavutil      58. 29.100 / 58. 29.100
  libavcodec     60. 31.102 / 60. 31.102
  libavformat    60. 16.100 / 60. 16.100
  libavdevice    60.  3.100 / 60.  3.100
  libavfilter     9. 12.100 /  9. 12.100
  libswscale      7.  5.100 /  7.  5.100
  libswresample   4. 12.100 /  4. 12.100
  libpostproc    57.  3.100 / 57.  3.100
Input #0, rawvideo, from 'fd:':
  Duration: N/A, start: 0.000000, bitrate: 663552 kb/s
  Stream #0:0: Video: rawvideo (RGB[24] / 0x18424752), rgb24, 1280x720, 663552 kb/s, 30 tbr, 30 tbn
Stream mapping:
  Stream #0:0 -> #0:0 (rawvideo (native) -> h264 (libx264))
[libx264 @ 0x58fab8fcd480] using cpu capabilities: MMX2 SSE2Fast SSSE3 SSE4.2 AVX FMA3 BMI2 AVX2
[libx264 @ 0x58fab8fcd480] profile High, level 3.1, 4:2:0, 8-bit
[libx264 @ 0x58fab8fcd480] 264 - core 164 r3108 31e19f9 - H.264/MPEG-4 AVC codec - Copyleft 2003-2023 - http://www.videolan.org/x264.html - options: cabac=1 ref=3 deblock=1:0:0 analyse=0x3:0x113 me=hex subme=7 psy=1 psy_rd=1.00:0.00 mixed_ref=1 me_range=16 chroma_me=1 trellis=1 8x8dct=1 cqm=0 deadzone=21,11 fast_pskip=1 chroma_qp_offset=-2 threads=22 lookahead_threads=3 sliced_threads=0 nr=0 decimate=1 interlaced=0 bluray_compat=0 constrained_intra=0 bframes=3 b_pyramid=2 b_adapt=1 b_bias=0 direct=1 weightb=1 open_gop=0 weightp=2 keyint=250 keyint_min=25 scenecut=40 intra_refresh=0 rc_lookahead=40 rc=crf mbtree=1 crf=18.0 qcomp=0.60 qpmin=0 qpmax=69 qpstep=4 ip_ratio=1.40 aq=1:1.00
Output #0, mp4, to '/home/xinjie/Newton_Connection/Newton/phystwin_bridge/results/robot_rope_franka/candidates/20260403_002700_physradius0p5_c17/validation/work/robot_rope_tabletop_hero_validation.mp4':
  Metadata:
    encoder         : Lavf60.16.100
  Stream #0:0: Video: h264 (avc1 / 0x31637661), yuv420p(tv, progressive), 1280x720, q=2-31, 30 fps, 15360 tbn
    Metadata:
      encoder         : Lavc60.31.102 libx264
    Side data:
      cpb: bitrate max/min/avg: 0/0/0 buffer size: 0 vbv_delay: N/A
frame=    0 fps=0.0 q=0.0 size=       0kB time=N/A bitrate=N/A speed=N/A    frame=   44 fps=0.0 q=24.0 size=       0kB time=00:00:01.40 bitrate=   0.3kbits/s speed=2.78x    [out#0/mp4 @ 0x58fab8fcbc80] video:616kB audio:0kB subtitle:0kB other streams:0kB global headers:0kB muxing overhead: 0.490160%
frame=  186 fps=0.0 q=-1.0 Lsize=     619kB time=00:00:06.10 bitrate= 831.4kbits/s speed=6.53x    
[libx264 @ 0x58fab8fcd480] frame I:1     Avg QP: 9.97  size: 83134
[libx264 @ 0x58fab8fcd480] frame P:48    Avg QP:16.55  size:  6084
[libx264 @ 0x58fab8fcd480] frame B:137   Avg QP:22.65  size:  1861
[libx264 @ 0x58fab8fcd480] consecutive B-frames:  1.1%  2.2%  0.0% 96.8%
[libx264 @ 0x58fab8fcd480] mb I  I16..4: 38.7% 19.4% 41.9%
[libx264 @ 0x58fab8fcd480] mb P  I16..4:  0.1%  0.3%  0.2%  P16..4:  2.9%  2.2%  1.9%  0.0%  0.0%    skip:92.4%
[libx264 @ 0x58fab8fcd480] mb B  I16..4:  0.0%  0.1%  0.0%  B16..8:  2.8%  1.1%  0.5%  direct: 0.5%  skip:94.9%  L0:34.6% L1:39.1% BI:26.3%
[libx264 @ 0x58fab8fcd480] 8x8 transform intra:31.0% inter:17.9%
[libx264 @ 0x58fab8fcd480] coded y,uvDC,uvAC intra: 30.9% 41.0% 36.8% inter: 1.9% 0.5% 0.2%
[libx264 @ 0x58fab8fcd480] i16 v,h,dc,p: 80%  9%  8%  3%
[libx264 @ 0x58fab8fcd480] i8 v,h,dc,ddl,ddr,vr,hd,vl,hu: 25%  8% 52%  1%  4%  5%  2%  0%  2%
[libx264 @ 0x58fab8fcd480] i4 v,h,dc,ddl,ddr,vr,hd,vl,hu: 25% 31% 16%  1%  6%  6%  7%  1%  8%
[libx264 @ 0x58fab8fcd480] i8c dc,h,v,p: 68% 17% 13%  2%
[libx264 @ 0x58fab8fcd480] Weighted P-Frames: Y:0.0% UV:0.0%
[libx264 @ 0x58fab8fcd480] ref P L0: 65.1% 13.1% 16.2%  5.6%
[libx264 @ 0x58fab8fcd480] ref B L0: 85.2% 12.3%  2.4%
[libx264 @ 0x58fab8fcd480] ref B L1: 94.5%  5.5%
[libx264 @ 0x58fab8fcd480] kb/s:813.06
